# xmcd
#
# Track frame offsets:
#	150
#	77332
#	126548
#	166466
#	175693
#
# Disc length: 2654 seconds
#
# Revision: 1
# Processed by: cddbd v1.5.2PL0 Copyright (c) Steve Scherf et al.
# Submitted via: audiograbber 1.83.01
#
DISCID=360a5c05
DTITLE=Grateful Dead - 95-03-23 Charlotte Coliseum, Charlotte NC
DYEAR=1900
DGENRE=
TTITLE0=Space
TTITLE1=The Days Between
TTITLE2=Good Lovin'
TTITLE3=Crowd and Tuning
TTITLE4=The Weight
EXTD=
EXTT0=
EXTT1=
EXTT2=
EXTT3=
EXTT4=
PLAYORDER=
